# xmcd CD database file
#
# Track frame offsets:
#	150
#	13237
#	26832
#	59511
#	80533
#	90915
#	118217
#	136570
#	145236
#	156623
#	196381
#	224521
#	231405
#	243207
#	254052
#	264710
#	276695
#
# Disc length: 4021 seconds
#
# Revision: 0
# Processed by: cddbd v1.5.1PL2 Copyright (c) Steve Scherf et al.
# Submitted via: CDex 1.51
#
DISCID=0c0fb311
DTITLE=Derek Bailey - Domestic and Public Pieces
DYEAR=1977
DGENRE=Jazz
TTITLE0=Eight Domestic Pieces: Kew
TTITLE1=Eight Domestic Pieces: Unity Theatre
TTITLE2=Eight Domestic Pieces: Queue
TTITLE3=Eight Domestic Pieces: Cue
TTITLE4=Eight Domestic Pieces: Roots
TTITLE5=Eight Domestic Pieces: Virginal
TTITLE6=Eight Domestic Pieces: Praxis
TTITLE7=Eight Domestic Pieces: The Lost Chord
TTITLE8=Eight Public Pieces: First
TTITLE9=Eight Public Pieces: Second
TTITLE10=Eight Public Pieces: Third
TTITLE11=Eight Public Pieces: Fourth
TTITLE12=Eight Public Pieces: Fifth
TTITLE13=Eight Public Pieces: Sixth
TTITLE14=Eight Public Pieces: Seventh
TTITLE15=Eight Public Pieces: Eighth
TTITLE16=Anothr Domestic Piece: Happy Birthday to You
EXTD=YEAR: 1977
EXTT0=
EXTT1=
EXTT2=
EXTT3=
EXTT4=
EXTT5=
EXTT6=
EXTT7=
EXTT8=
EXTT9=
EXTT10=
EXTT11=
EXTT12=
EXTT13=
EXTT14=
EXTT15=
EXTT16=
PLAYORDER=
